<svg xmlns="http://www.w3.org/2000/svg" viewBox="0 0 24 24" fill="currentColor" width="24" height="24">
  <path d="M17.6 9.48l1.84-3.18c.16-.31.04-.69-.26-.85-.29-.15-.65-.06-.83.22l-1.88 3.24C14.25 8.95 13.19 8.5 12 8.5s-2.25.45-3.23 1.19L6.65 6.67c-.19-.28-.54-.37-.83-.22-.3.16-.42.54-.26.85l1.84 3.18C4.47 10.82 3 13.28 3 16c0 3.31 2.69 6 6 6s6-2.69 6-6c0-2.72-1.47-5.18-3.4-6.52zM12 19.5c-1.93 0-3.5-1.57-3.5-3.5s1.57-3.5 3.5-3.5 3.5 1.57 3.5 3.5-1.57 3.5-3.5 3.5zm-1-8.5h2v4h-2v-4zm-2 0h2v4H9v-4zm4 0h2v4h-2v-4z"/>
</svg>
