<svg xmlns="http://www.w3.org/2000/svg" viewBox="0 0 256 256" aria-hidden="true">
  <rect width="256" height="256" fill="white"/>
  <g fill="black" stroke="black" stroke-width="2" stroke-linejoin="round">
    <!-- Back leg -->
    <ellipse cx="175" cy="200" rx="16" ry="26"/>
    <!-- Front leg -->
    <ellipse cx="95" cy="195" rx="14" ry="24"/>
    <!-- Tail -->
    <path d="M200 165 Q228 155 242 128 Q250 108 238 82 Q225 62 198 78 Q182 95 188 118 Q195 142 200 165Z"/>
    <!-- Tail spikes -->
    <path d="M216 98 L222 78 L228 98 Z"/>
    <path d="M232 88 L240 65 L248 88 Z"/>
    <path d="M246 82 L254 56 L260 82 Z"/>
    <!-- Body -->
    <ellipse cx="128" cy="165" rx="52" ry="40"/>
    <!-- Back plates -->
    <path d="M76 128 L90 88 L104 128 Z"/>
    <path d="M104 122 L120 76 L136 122 Z"/>
    <path d="M132 118 L152 68 L172 118 Z"/>
    <path d="M160 122 L176 80 L192 122 Z"/>
    <path d="M188 130 L202 100 L216 130 Z"/>
    <!-- Neck -->
    <path d="M76 148 Q58 132 50 108 Q44 88 50 76" fill="none" stroke="black" stroke-width="2"/>
    <!-- Head -->
    <ellipse cx="42" cy="72" rx="20" ry="18"/>
    <!-- Eye (white with black pupil) -->
    <ellipse cx="50" cy="68" rx="5" ry="6" fill="white" stroke="black"/>
    <circle cx="51" cy="67" r="2.5" fill="black"/>
    <!-- Smile -->
    <path d="M36 82 Q42 88 48 82" fill="none" stroke="black" stroke-width="1.5" stroke-linecap="round"/>
  </g>
</svg>
